:FULLY-SPECIFIED
:FORCE-ALL-JOINTS-BE-3DOF
:DEGREES
985
root 1.10738 15.1465 32.5027 5.40277 -4.66507 364.177
lfemur 8.7069 1.76623 5.15017
ltibia 3.63459e-14 0 0
lfoot -30.1241 -11.7336 0
ltoes -33.8185 0 0
rfemur -33.0558 -15.4376 -6.31255
rtibia 51.039 0 0
rfoot -22.6388 4.89182 0
rtoes -41.8492 0 0
lowerback -1.51979 -0.476457 0.657628
upperback -0.731309 -0.640413 -5.94948
thorax 0.0235933 -0.337603 -6.55474
lowerneck -6.53507 1.13401 5.89086
upperneck 0.949826 0.945299 3.34583
head 1.40782 0.569986 0.083872
lclavicle -5.37534e-15 -2.25807e-14 0
lhumerus -58.7236 -45.5141 115
lradius 55.1399 0 0
lwrist 25.5064 0 0
lhand 37.2942 24.4178 0
lfingers 7.12502 0 0
lthumb 60.1169 38.0748 0
rclavicle -5.37534e-15 -2.25807e-14 0
rhumerus 3.74575 -24.997 -0.167003
rradius 28.1161 0 0
rwrist -11.4194 0 0
rhand -31.2587 -44.4065 0
rfingers 7.12502 0 0
rthumb -4.53301 -794.338 0
986
root 1.11125 15.1486 32.4959 5.36151 -4.6512 364.163
lfemur 8.71334 1.73853 5.1516
ltibia 2.85821e-14 0 0
lfoot -30.1254 -11.7164 0
ltoes -33.8386 0 0
rfemur -32.9806 -15.4616 -6.30756
rtibia 50.9446 0 0
rfoot -22.6622 4.86619 0
rtoes -41.9767 0 0
lowerback -1.50179 -0.45209 0.650121
upperback -0.726557 -0.607801 -5.92863
thorax 0.022568 -0.320981 -6.52757
lowerneck -6.58281 1.14208 5.87728
upperneck 1.01114 0.950225 3.35752
head 1.436 0.575157 0.0903554
lclavicle -4.16967e-15 -1.2818e-14 0
lhumerus -58.6681 -45.5066 115.019
lradius 55.1277 0 0
lwrist 25.4365 0 0
lhand 37.2856 24.4003 0
lfingers 7.12502 0 0
lthumb 60.1095 38.0652 0
rclavicle -4.16967e-15 -1.2818e-14 0
rhumerus 3.74803 -24.9233 -0.188826
rradius 28.0839 0 0
rwrist -11.3454 0 0
rhand -31.2705 -44.3596 0
rfingers 7.12502 0 0
rthumb -4.5444 -794.291 0
987
root 1.11524 15.1509 32.4888 5.31985 -4.64003 364.146
lfemur 8.72091 1.71324 5.15486
ltibia 1.94761e-14 0 0
lfoot -30.127 -11.6985 0
ltoes -33.8591 0 0
rfemur -32.9043 -15.4962 -6.29856
rtibia 50.8436 0 0
rfoot -22.6914 4.84869 0
rtoes -42.1155 0 0
lowerback -1.48256 -0.424882 0.642555
upperback -0.723102 -0.571474 -5.90622
thorax 0.0199626 -0.302535 -6.49864
lowerneck -6.63527 1.15196 5.86174
upperneck 1.0737 0.957226 3.37031
head 1.46544 0.581476 0.0975978
lclavicle -2.72295e-15 -1.54895e-15 0
lhumerus -58.6035 -45.4876 115.037
lradius 55.1123 0 0
lwrist 25.3577 0 0
lhand 37.2743 24.3875 0
lfingers 7.12502 0 0
lthumb 60.0999 38.0625 0
rclavicle -2.72295e-15 -1.54895e-15 0
rhumerus 3.75343 -24.8467 -0.204641
rradius 28.0503 0 0
rwrist -11.2739 0 0
rhand -31.2888 -44.3213 0
rfingers 7.12502 0 0
rthumb -4.56207 -794.252 0
988
root 1.11919 15.1532 32.4818 5.27915 -4.62914 364.127
lfemur 8.72802 1.6887 5.16055
ltibia 9.77208e-15 0 0
lfoot -30.1288 -11.6785 0
ltoes -33.8804 0 0
rfemur -32.8282 -15.5388 -6.28591
rtibia 50.7402 0 0
rfoot -22.7238 4.83697 0
rtoes -42.2595 0 0
lowerback -1.4631 -0.396495 0.635022
upperback -0.720525 -0.533619 -5.88331
thorax 0.0165113 -0.283353 -6.46917
lowerneck -6.68983 1.16258 5.84593
upperneck 1.1348 0.965127 3.38358
head 1.4948 0.588233 0.105065
lclavicle -1.15423e-15 1.04836e-14 0
lhumerus -58.5347 -45.4617 115.053
lradius 55.0956 0 0
lwrist 25.2762 0 0
lhand 37.2612 24.3796 0
lfingers 7.12502 0 0
lthumb 60.0886 38.0665 0
rclavicle -1.15423e-15 1.04836e-14 0
rhumerus 3.75995 -24.7686 -0.2147
rradius 28.0172 0 0
rwrist -11.2074 0 0
rhand -31.3109 -44.2897 0
rfingers 7.12502 0 0
rthumb -4.58334 -794.22 0
989
root 1.12297 15.1554 32.4749 5.24045 -4.61447 364.105
lfemur 8.73244 1.66165 5.16935
ltibia 5.04569e-16 0 0
lfoot -30.1308 -11.654 0
ltoes -33.9035 0 0
rfemur -32.7528 -15.5848 -6.27048
rtibia 50.6394 0 0
rfoot -22.7558 4.8262 0
rtoes -42.4015 0 0
lowerback -1.44462 -0.369065 0.627486
upperback -0.717967 -0.497023 -5.8611
thorax 0.0134157 -0.264805 -6.44047
lowerneck -6.74329 1.17246 5.8322
upperneck 1.19179 0.97213 3.39661
head 1.52265 0.594409 0.112059
lclavicle 3.66922e-16 2.22716e-14 0
lhumerus -58.4685 -45.4369 115.069
lradius 55.0801 0 0
lwrist 25.2002 0 0
lhand 37.247 24.3761 0
lfingers 7.12502 0 0
lthumb 60.0765 38.0758 0
rclavicle 3.66922e-16 2.22716e-14 0
rhumerus 3.76446 -24.6901 -0.220594
rradius 27.9863 0 0
rwrist -11.1479 0 0
rhand -31.3322 -44.2599 0
rfingers 7.12502 0 0
rthumb -4.60394 -794.189 0
990
root 1.12641 15.1575 32.4683 5.20446 -4.59031 364.082
lfemur 8.73129 1.62723 5.18197
ltibia -7.00173e-15 0 0
lfoot -30.133 -11.6216 0
ltoes -33.9299 0 0
rfemur -32.6776 -15.6275 -6.25366
rtibia 50.5464 0 0
rfoot -22.7826 4.80903 0
rtoes -42.5333 0 0
lowerback -1.42843 -0.345199 0.619785
upperback -0.714138 -0.465079 -5.84094
thorax 0.0123444 -0.248551 -6.41396
lowerneck -6.7919 1.17962 5.82346
upperneck 1.24221 0.975821 3.40854
head 1.54752 0.598672 0.11772
lclavicle 1.62043e-15 3.2542e-14 0
lhumerus -58.4137 -45.4241 115.087
lradius 55.0693 0 0
lwrist 25.1398 0 0
lhand 37.2332 24.3757 0
lfingers 7.12502 0 0
lthumb 60.0646 38.0879 0
rclavicle 1.62043e-15 3.2542e-14 0
rhumerus 3.76265 -24.6115 -0.22525
rradius 27.9596 0 0
rwrist -11.0963 0 0
rhand -31.3467 -44.2241 0
rfingers 7.12502 0 0
rthumb -4.61796 -794.153 0
991
root 1.12939 15.1592 32.4621 5.17158 -4.54935 364.056
lfemur 8.72107 1.579 5.19918
ltibia -1.11319e-14 0 0
lfoot -30.1354 -11.5772 0
ltoes -33.9618 0 0
rfemur -32.6009 -15.6586 -6.23735
rtibia 50.4669 0 0
rfoot -22.798 4.77557 0
rtoes -42.6455 0 0
lowerback -1.41603 -0.327975 0.611632
upperback -0.707309 -0.441784 -5.82432
thorax 0.0154336 -0.236537 -6.39113
lowerneck -6.83133 1.18164 5.8233
upperneck 1.28368 0.973166 3.41841
head 1.56785 0.599381 0.121025
lclavicle 2.33572e-15 3.97569e-14 0
lhumerus -58.3809 -45.4375 115.112
lradius 55.0674 0 0
lwrist 25.1071 0 0
lhand 37.2213 24.3762 0
lfingers 7.12502 0 0
lthumb 60.0545 38.0991 0
rclavicle 2.33572e-15 3.97569e-14 0
rhumerus 3.74912 -24.5326 -0.232932
rradius 27.9392 0 0
rwrist -11.0528 0 0
rhand -31.3467 -44.1718 0
rfingers 7.12502 0 0
rthumb -4.61794 -794.101 0
992
root 1.12972 15.1594 32.4613 5.16776 -4.54209 364.052
lfemur 8.71862 1.57118 5.20199
ltibia -1.1245e-14 0 0
lfoot -30.1358 -11.5698 0
ltoes -33.9667 0 0
rfemur -32.5909 -15.6614 -6.23518
rtibia 50.4581 0 0
rfoot -22.7988 4.76927 0
rtoes -42.6579 0 0
lowerback -1.4149 -0.326572 0.610572
upperback -0.706106 -0.439849 -5.82252
thorax 0.0162968 -0.235513 -6.38857
lowerneck -6.83528 1.18135 5.82431
upperneck 1.28787 0.972155 3.41944
head 1.5699 0.599089 0.121173
lclavicle 2.36567e-15 4.03393e-14 0
lhumerus -58.3792 -45.4422 115.116
lradius 55.068 0 0
lwrist 25.1063 0 0
lhand 37.2199 24.3764 0
lfingers 7.12502 0 0
lthumb 60.0533 38.1006 0
rclavicle 2.36567e-15 4.03393e-14 0
rhumerus 3.74617 -24.5222 -0.234354
rradius 27.9374 0 0
rwrist -11.0485 0 0
rhand -31.3451 -44.1632 0
rfingers 7.12502 0 0
rthumb -4.61642 -794.092 0
993
root 1.13056 15.1599 32.4593 5.15798 -4.51998 364.042
lfemur 8.71043 1.54809 5.21073
ltibia -1.11106e-14 0 0
lfoot -30.137 -11.5467 0
ltoes -33.9814 0 0
rfemur -32.5632 -15.6688 -6.22845
rtibia 50.4351 0 0
rfoot -22.8002 4.75025 0
rtoes -42.6911 0 0
lowerback -1.41234 -0.323564 0.607751
upperback -0.702615 -0.435643 -5.81772
thorax 0.0190291 -0.233252 -6.38176
lowerneck -6.84504 1.18016 5.82824
upperneck 1.29771 0.968927 3.42206
head 1.57479 0.597999 0.121297
lclavicle 2.39581e-15 4.16725e-14 0
lhumerus -58.3767 -45.457 115.128
lradius 55.0702 0 0
lwrist 25.108 0 0
lhand 37.2158 24.3778 0
lfingers 7.12502 0 0
lthumb 60.0498 38.1056 0
rclavicle 2.39581e-15 4.16725e-14 0
rhumerus 3.73726 -24.4926 -0.23828
rradius 27.9338 0 0
rwrist -11.0392 0 0
rhand -31.3398 -44.1385 0
rfingers 7.12502 0 0
rthumb -4.61126 -794.068 0
994
root 1.13172 15.1606 32.4562 5.14438 -4.48305 364.024
lfemur 8.69569 1.51055 5.22563
ltibia -1.01827e-14 0 0
lfoot -30.1391 -11.5074 0
ltoes -34.0055 0 0
rfemur -32.5215 -15.6798 -6.21706
rtibia 50.4022 0 0
rfoot -22.801 4.71885 0
rtoes -42.7394 0 0
lowerback -1.40936 -0.320418 0.603628
upperback -0.697031 -0.431129 -5.81078
thorax 0.0237586 -0.230749 -6.37192
lowerneck -6.85793 1.17766 5.83607
upperneck 1.30978 0.963258 3.42567
head 1.58095 0.595848 0.121012
lclavicle 2.35414e-15 4.32312e-14 0
lhumerus -58.3767 -45.4829 115.147
lradius 55.0743 0 0
lwrist 25.1168 0 0
lhand 37.2093 24.3814 0
lfingers 7.12502 0 0
lthumb 60.0442 38.1151 0
rclavicle 2.35414e-15 4.32312e-14 0
rhumerus 3.72239 -24.4467 -0.24409
rradius 27.9305 0 0
rwrist -11.0296 0 0
rhand -31.33 -44.0996 0
rfingers 7.12502 0 0
rthumb -4.60183 -794.029 0
995
root 1.13304 15.1615 32.4523 5.12872 -4.432 364.001
lfemur 8.67417 1.45986 5.24657
ltibia -8.13405e-15 0 0
lfoot -30.142 -11.4528 0
ltoes -34.0382 0 0
rfemur -32.4688 -15.6933 -6.20121
rtibia 50.3634 0 0
rfoot -22.8004 4.67611 0
rtoes -42.7974 0 0
lowerback -1.40673 -0.318159 0.59855
upperback -0.689579 -0.427677 -5.80251
thorax 0.0304986 -0.228704 -6.36015
lowerneck -6.87193 1.17359 5.84835
upperneck 1.32152 0.955018 3.42977
head 1.5872 0.59246 0.120058
lclavicle 2.19202e-15 4.46178e-14 0
lhumerus -58.3812 -45.5201 115.174
lradius 55.0807 0 0
lwrist 25.1356 0 0
lhand 37.2006 24.3877 0
lfingers 7.12502 0 0
lthumb 60.0368 38.1292 0
rclavicle 2.19202e-15 4.46178e-14 0
rhumerus 3.70164 -24.3874 -0.251008
rradius 27.9288 0 0
rwrist -11.0229 0 0
rhand -31.3154 -44.0485 0
rfingers 7.12502 0 0
rthumb -4.58774 -793.978 0
996
root 1.13439 15.1624 32.448 5.11228 -4.36825 363.972
lfemur 8.64623 1.39774 5.27307
ltibia -4.85651e-15 0 0
lfoot -30.1456 -11.3845 0
ltoes -34.0782 0 0
rfemur -32.4081 -15.7085 -6.18144
rtibia 50.3219 0 0
rfoot -22.7978 4.62379 0
rtoes -42.8606 0 0
lowerback -1.40491 -0.317365 0.592752
upperback -0.680512 -0.426071 -5.79371
thorax 0.0391479 -0.227521 -6.34743
lowerneck -6.88568 1.16775 5.8651
upperneck 1.33127 0.944172 3.434
head 1.59277 0.587738 0.118298
lclavicle 1.88419e-15 4.55625e-14 0
lhumerus -58.3917 -45.5679 115.205
lradius 55.0897 0 0
lwrist 25.1655 0 0
lhand 37.1903 24.3971 0
lfingers 7.12502 0 0
lthumb 60.028 38.1479 0
rclavicle 1.88419e-15 4.55625e-14 0
rhumerus 3.67517 -24.3181 -0.258106
rradius 27.9293 0 0
rwrist -11.0207 0 0
rhand -31.296 -43.9873 0
rfingers 7.12502 0 0
rthumb -4.56893 -793.918 0
